<?xml version="1.0" encoding="UTF-8" standalone="no"?>
<!-- Created with Inkscape (http://www.inkscape.org/) -->

<svg
   width="15mm"
   height="10mm"
   viewBox="0 0 110 85"
   version="1.1"
   id="svg5"
   xmlns="http://www.w3.org/2000/svg"
   xmlns:svg="http://www.w3.org/2000/svg">
  <defs
     id="defs2" />
  <g
     id="layer2" />
  <g
     id="layer1">
    <path
       id="path622"
       style="fill:#000000;stroke-width:0.793481"
       d="m 94.212402,22.261352 h 1.80454 3.46335 v 22.61412 22.61412 h -3.04167 -3.57033 v 4.16202 9.32657 l -9.83557,-7.14737 -8.64495,-6.34173 H 56.60591 39.984702 l 0.02687,-3.76928 0.0057,-3.76876 h 1.565279 1.425753 l -0.01757,2.18178 -0.0067,2.18229 h 16.662549 16.663059 l 6.09731,4.75888 6.97838,5.15421 0.0388,-5.15421 0.0238,-4.75888 h 3.06183 3.5326 v -19.36626 -19.36574 l -1.38855,-0.001 -1.44952,-10e-4 -2.10995,0.0357 -0.0439,-1.66553 10e-4,-1.63505 z" />
    <path
       d="m 11.446279,10.249202 h 38.88083 38.880313 l 0.20929,22.41465 0.20929,25.58965 H 64.798577 39.971152 l -7.914761,6.03271 -7.914246,6.03271 -2.182295,1.55959 -2.181779,1.5596 v -7.5923 -7.59231 H 15.402627 11.0277 l 0.20929,-25.58965 z m 3.570842,3.57084 v 19.04225 22.21777 h 3.9672 3.967199 v 5.6012 5.6007 l 0.992188,-0.61237 0.991671,-0.61237 6.539135,-4.98884 6.539135,-4.98832 H 61.825116 85.636582 V 32.862292 13.820042 H 50.327109 Z"
       style="fill:#4154f1;fill-opacity:1;stroke-width:0.793481"
       id="path3079" />
    <text
       xml:space="preserve"
       style="font-style:normal;font-variant:normal;font-weight:normal;font-stretch:normal;font-size:21.8722px;line-height:1.25;font-family:'Modern Sans';-inkscape-font-specification:'Modern Sans, Normal';font-variant-ligatures:normal;font-variant-caps:normal;font-variant-numeric:normal;font-variant-east-asian:normal;fill:#4154f1;fill-opacity:1;stroke:none;stroke-width:0.264583"
       x="15.747546"
       y="32.754902"
       id="text5090"><tspan
         id="tspan5088"
         style="font-style:normal;font-variant:normal;font-weight:normal;font-stretch:normal;font-size:21.8722px;font-family:'Modern Sans';-inkscape-font-specification:'Modern Sans, Normal';font-variant-ligatures:normal;font-variant-caps:normal;font-variant-numeric:normal;font-variant-east-asian:normal;fill:#4154f1;fill-opacity:1;stroke-width:0.264583"
         x="15.747546"
         y="32.754902">HINT</tspan></text>
    <text
       xml:space="preserve"
       style="font-style:normal;font-variant:normal;font-weight:normal;font-stretch:normal;font-size:21.8722px;line-height:1.25;font-family:'Modern Sans';-inkscape-font-specification:'Modern Sans, Normal';font-variant-ligatures:normal;font-variant-caps:normal;font-variant-numeric:normal;font-variant-east-asian:normal;fill:#000000;fill-opacity:1;stroke:none;stroke-width:0.264583"
       x="15.560454"
       y="52.058857"
       id="text5601"><tspan
         id="tspan5599"
         style="font-style:normal;font-variant:normal;font-weight:normal;font-stretch:normal;font-size:21.8722px;font-family:'Modern Sans';-inkscape-font-specification:'Modern Sans, Normal';font-variant-ligatures:normal;font-variant-caps:normal;font-variant-numeric:normal;font-variant-east-asian:normal;stroke-width:0.264583"
         x="15.560454"
         y="52.058857">SHARE</tspan></text>
  </g>
</svg>
